<svg id="SvgjsSvg1014" width="4098" height="5000"
    xmlns="http://www.w3.org/2000/svg" version="1.1"
    xmlns:xlink="http://www.w3.org/1999/xlink"
    xmlns:svgjs="http://svgjs.com/svgjs" viewBox="0 0 210 256.1875">
    <defs id="SvgjsDefs1015"></defs>
    <g id="SvgjsG1017" transform="rotate(0 105 105)">
        <svg xmlns="http://www.w3.org/2000/svg"
            xmlns:xlink="http://www.w3.org/1999/xlink" version="1.1" x="0" y="0" viewBox="0 0 140 140" enable-background="new 0 0 140 140" xml:space="preserve"
            xmlns:svgjs="http://svgjs.com/svgjs" preserveAspectRatio="none" width="210" height="210" fill="#656565" stroke="none">
            <polygon points="125.424,84.605 122.785,64.463 99.018,39.83 88.055,61.689 79.425,40.013 63.959,26.84 45.269,64.111   32.078,46.977 3.464,104.064 6.146,105.41 33.087,51.688 33.041,67.502 41.384,79.018 33.451,89.368 56.942,112.084 47.181,83.151   51.875,72.681 47.302,66.748 64.331,32.791 61.289,51.872 67.87,62.471 65.556,80.579 78.953,66.461 89.54,65.419 99.993,44.576   103.716,74.605 89.86,81.181 83.751,112.084 109.362,91.281 134.522,102.367 "></polygon>
            <line stroke-width="3" stroke-linecap="square" stroke-miterlimit="10" x1="181.764" y1="48.322" x2="154.145" y2="103.396"></line>
            <line stroke-width="3" stroke-linecap="square" stroke-miterlimit="10" x1="213.765" y1="27.916" x2="194.952" y2="65.43"></line>
            <line stroke-width="3" stroke-linecap="square" stroke-miterlimit="10" x1="248.353" y1="41.843" x2="237.539" y2="63.406"></line>
            <polyline points="248.323,41.868 248.321,41.843 248.333,41.854 248.336,41.843 271.452,64.463 274.091,84.605 283.189,102.367   258.029,91.281 232.418,112.084 238.527,81.181 252.383,74.605 248.321,41.843 "></polyline>
            <polyline points="213.767,27.97 213.775,27.916 213.788,27.931 213.797,27.916 228.092,40.013 238.356,65.43 227.62,66.461   214.223,80.579 216.537,62.471 209.955,51.872 213.767,27.97 "></polyline>
            <polygon points="205.609,112.084 195.848,83.151 200.543,72.681 181.764,48.322 181.707,67.502 190.051,79.018 182.118,89.368 "></polygon>
            <defs id="SvgjsDefs1016"></defs>
        </svg>
    </g>
    <g id="SvgjsG1019" transform="rotate(0 105 206.09375)">
        <svg xmlns="http://www.w3.org/2000/svg"
            xmlns:xlink="http://www.w3.org/1999/xlink" width="131.875" viewBox="7.920000076293945 15.479999542236328 131.8800048828125 46.20000076293945" overflow="visible" style="overflow: visible;" transform="" version="1.1"
            xmlns:svgjs="http://svgjs.com/svgjs" preserveAspectRatio="none" height="46.1875" x="39.0625" y="183" fill="#000000" stroke="none">
            <path stroke="none" fill="#5cadff" d="M15.96 61.50L13.56 60.78L13.62 60.60L13.62 60.60Q13.62 60.00 12.60 59.94L12.60 59.94L12.60 59.94Q11.34 59.16 9.90 57.27L9.90 57.27L9.90 57.27Q8.46 55.38 8.10 54.36L8.10 54.36L8.10 54.36Q7.92 53.88 7.92 53.70L7.92 53.70L7.92 53.70Q7.92 53.40 8.16 53.25L8.16 53.25L8.16 53.25Q8.40 53.10 8.76 52.95L8.76 52.95L8.76 52.95Q9.12 52.80 9.30 52.74L9.30 52.74L9.30 52.74Q10.38 52.02 10.92 52.02L10.92 52.02L10.92 52.02Q11.52 52.02 11.94 52.80L11.94 52.80L11.94 52.80Q12.78 54.30 14.64 55.29L14.64 55.29L14.64 55.29Q16.50 56.28 18.78 56.28L18.78 56.28L18.78 56.28Q20.82 56.28 22.44 55.56L22.44 55.56L22.44 55.56Q24 54.84 24 53.46L24 53.46L24 53.46Q24 52.44 23.10 51.00L23.10 51.00L23.10 51.00Q22.98 50.64 22.68 50.34L22.68 50.34L22.68 50.34Q22.38 50.04 21.96 49.74L21.96 49.74L21.96 49.74Q21 49.02 19.86 47.88L19.86 47.88L19.86 47.88Q18.90 47.52 17.88 46.92L17.88 46.92L16.62 46.32L16.62 46.32Q15.12 45.60 13.26 44.01L13.26 44.01L13.26 44.01Q11.40 42.42 10.68 41.04L10.68 41.04L10.68 41.04Q9.36 39.78 9.36 37.20L9.36 37.20L9.36 37.20Q9.36 34.38 10.68 31.92L10.68 31.92L10.68 31.92Q11.40 30.30 14.16 26.94L14.16 26.94L14.16 26.94Q16.92 23.58 18.24 22.74L18.24 22.74L19.80 21.24L19.80 21.24Q19.86 21.00 19.98 20.97L19.98 20.97L19.98 20.97Q20.10 20.94 20.16 20.94L20.16 20.94L20.16 20.94Q20.34 20.82 21.42 20.37L21.42 20.37L21.42 20.37Q22.50 19.92 23.70 18.78L23.70 18.78L23.70 18.78Q27.36 16.98 30.21 16.23L30.21 16.23L30.21 16.23Q33.06 15.48 34.98 15.48L34.98 15.48L34.98 15.48Q37.32 15.60 39.33 17.16L39.33 17.16L39.33 17.16Q41.34 18.72 41.64 20.76L41.64 20.76L41.64 20.76Q41.76 21.36 41.76 21.72L41.76 21.72L41.76 21.72Q41.76 23.94 39.96 26.70L39.96 26.70L39.96 26.70Q38.16 29.46 36.12 30.60L36.12 30.60L36.12 30.60Q35.22 31.02 34.38 31.02L34.38 31.02L34.38 31.02Q33.36 31.02 32.73 30.48L32.73 30.48L32.73 30.48Q32.10 29.94 32.16 29.10L32.16 29.10L32.16 29.10Q32.16 28.56 32.55 27.87L32.55 27.87L32.55 27.87Q32.94 27.18 34.32 25.62L34.32 25.62L34.32 25.62Q36.36 22.62 36.36 21.30L36.36 21.30L36.36 21.30Q36.36 20.40 35.28 20.22L35.28 20.22L35.28 20.22Q34.62 20.04 31.71 20.73L31.71 20.73L31.71 20.73Q28.80 21.42 28.80 21.72L28.80 21.72L28.80 21.72Q28.80 21.78 28.77 21.93L28.77 21.93L28.77 21.93Q28.74 22.08 28.56 22.02L28.56 22.02L28.56 22.02Q28.32 21.96 25.17 24.00L25.17 24.00L25.17 24.00Q22.02 26.04 21.90 26.34L21.90 26.34L21.90 26.34Q21.84 26.64 21.45 26.97L21.45 26.97L21.45 26.97Q21.06 27.30 20.52 27.54L20.52 27.54L20.52 27.54Q19.44 28.20 18.57 29.34L18.57 29.34L18.57 29.34Q17.70 30.48 16.32 32.94L16.32 32.94L16.32 32.94Q15.60 33.96 15.15 35.16L15.15 35.16L15.15 35.16Q14.70 36.36 14.70 37.32L14.70 37.32L14.70 37.32Q14.70 37.98 14.88 38.46L14.88 38.46L14.88 38.46Q15.12 39.36 16.17 40.11L16.17 40.11L16.17 40.11Q17.22 40.86 20.22 42.66L20.22 42.66L20.22 42.66Q23.28 44.40 25.74 46.35L25.74 46.35L25.74 46.35Q28.20 48.30 28.74 49.44L28.74 49.44L28.74 49.44Q29.70 50.82 29.70 53.04L29.70 53.04L29.70 53.04Q29.70 54.78 29.22 56.34L29.22 56.34L29.22 56.34Q28.68 57.48 27.84 58.47L27.84 58.47L27.84 58.47Q27 59.46 26.34 59.40L26.34 59.40L26.34 59.40Q25.74 59.58 25.32 59.85L25.32 59.85L25.32 59.85Q24.90 60.12 24.60 60.24L24.60 60.24L24.60 60.24Q23.88 60.66 20.91 61.11L20.91 61.11L20.91 61.11Q17.94 61.56 15.96 61.50L15.96 61.50ZM48.80 61.56L48.80 61.56Q46.94 60.90 45.23 59.64L45.23 59.64L45.23 59.64Q43.52 58.38 42.74 56.46L42.74 56.46L42.74 56.46Q41.78 53.76 41.78 50.10L41.78 50.10L41.78 50.10Q41.78 46.56 42.20 44.07L42.20 44.07L42.20 44.07Q42.62 41.58 43.64 39L43.64 39L44.18 37.74L44.18 37.74Q45.14 35.28 45.56 34.50L45.56 34.50L45.56 34.50Q46.58 32.16 49.16 28.44L49.16 28.44L49.16 28.44Q51.56 24.84 52.97 23.07L52.97 23.07L52.97 23.07Q54.38 21.30 55.88 20.01L55.88 20.01L55.88 20.01Q57.38 18.72 60.26 16.74L60.26 16.74L60.26 16.74Q62 15.48 64.52 15.48L64.52 15.48L64.52 15.48Q66.50 15.48 68.15 16.44L68.15 16.44L68.15 16.44Q69.80 17.40 70.64 19.44L70.64 19.44L70.64 19.44Q71.24 20.46 71.24 22.26L71.24 22.26L71.24 22.26Q71.24 25.14 69.86 28.50L69.86 28.50L69.86 28.50Q68.48 31.86 66.56 33.60L66.56 33.60L66.56 33.60Q66.14 34.02 65.42 34.02L65.42 34.02L65.42 34.02Q64.70 34.02 63.86 33.60L63.86 33.60L63.86 33.60Q63.02 33.18 62.36 32.58L62.36 32.58L62.36 32.58Q61.82 31.56 61.76 31.38L61.76 31.38L61.76 31.38Q61.70 31.20 62 31.14L62 31.14L62 31.14Q62.54 30.48 63.59 28.59L63.59 28.59L63.59 28.59Q64.64 26.70 65 25.62L65 25.62L65.36 23.94L65.36 23.94Q65.72 22.38 65.72 21.90L65.72 21.90L65.72 21.90Q65.72 21.36 65.30 20.94L65.30 20.94L65.30 20.94Q65.12 20.76 64.82 20.76L64.82 20.76L64.82 20.76Q64.34 20.76 63.14 21.36L63.14 21.36L63.14 21.36Q61.76 21.96 59.87 23.79L59.87 23.79L59.87 23.79Q57.98 25.62 56.12 28.14L56.12 28.14L56.12 28.14Q53.36 31.74 51.89 34.08L51.89 34.08L51.89 34.08Q50.42 36.42 49.64 38.82L49.64 38.82L48.98 40.38L48.98 40.38Q49.04 40.62 48.80 41.58L48.80 41.58L48.80 41.58Q48.56 42.54 48.26 43.14L48.26 43.14L48.26 43.14Q47.42 46.62 47.42 49.44L47.42 49.44L47.42 49.44Q47.42 51.66 47.87 53.28L47.87 53.28L47.87 53.28Q48.32 54.90 49.16 55.68L49.16 55.68L49.16 55.68Q49.64 56.10 50.54 56.10L50.54 56.10L50.54 56.10Q51.50 56.10 52.73 55.65L52.73 55.65L52.73 55.65Q53.96 55.20 55.34 54.60L55.34 54.60L55.34 54.60Q56.72 54.00 57.26 53.76L57.26 53.76L57.26 53.76Q58.64 53.22 59.87 52.50L59.87 52.50L59.87 52.50Q61.10 51.78 61.70 51.18L61.70 51.18L61.70 51.18Q63.26 50.04 64.22 50.04L64.22 50.04L64.22 50.04Q65 49.80 65.45 50.52L65.45 50.52L65.45 50.52Q65.90 51.24 65.90 52.50L65.90 52.50L65.90 52.50Q65.90 53.34 64.76 54.51L64.76 54.51L64.76 54.51Q63.62 55.68 62.06 56.58L62.06 56.58L62.06 56.58Q61.40 57.24 59.12 58.14L59.12 58.14L59.12 58.14Q57.20 59.52 54.65 60.60L54.65 60.60L54.65 60.60Q52.10 61.68 50 61.68L50 61.68L50 61.68Q49.52 61.68 48.80 61.56L48.80 61.56ZM82.66 61.56L82.66 61.56Q80.80 60.90 79.09 59.64L79.09 59.64L79.09 59.64Q77.38 58.38 76.60 56.46L76.60 56.46L76.60 56.46Q75.64 53.76 75.64 50.10L75.64 50.10L75.64 50.10Q75.64 46.56 76.06 44.07L76.06 44.07L76.06 44.07Q76.48 41.58 77.50 39L77.50 39L78.04 37.74L78.04 37.74Q79 35.28 79.42 34.50L79.42 34.50L79.42 34.50Q80.44 32.16 83.02 28.44L83.02 28.44L83.02 28.44Q85.42 24.84 86.83 23.07L86.83 23.07L86.83 23.07Q88.24 21.30 89.74 20.01L89.74 20.01L89.74 20.01Q91.24 18.72 94.12 16.74L94.12 16.74L94.12 16.74Q95.86 15.48 98.38 15.48L98.38 15.48L98.38 15.48Q100.36 15.48 102.01 16.44L102.01 16.44L102.01 16.44Q103.66 17.40 104.50 19.44L104.50 19.44L104.50 19.44Q105.10 20.46 105.10 22.26L105.10 22.26L105.10 22.26Q105.10 25.14 103.72 28.50L103.72 28.50L103.72 28.50Q102.34 31.86 100.42 33.60L100.42 33.60L100.42 33.60Q100 34.02 99.28 34.02L99.28 34.02L99.28 34.02Q98.56 34.02 97.72 33.60L97.72 33.60L97.72 33.60Q96.88 33.18 96.22 32.58L96.22 32.58L96.22 32.58Q95.68 31.56 95.62 31.38L95.62 31.38L95.62 31.38Q95.56 31.20 95.86 31.14L95.86 31.14L95.86 31.14Q96.40 30.48 97.45 28.59L97.45 28.59L97.45 28.59Q98.50 26.70 98.86 25.62L98.86 25.62L99.22 23.94L99.22 23.94Q99.58 22.38 99.58 21.90L99.58 21.90L99.58 21.90Q99.58 21.36 99.16 20.94L99.16 20.94L99.16 20.94Q98.98 20.76 98.68 20.76L98.68 20.76L98.68 20.76Q98.20 20.76 97 21.36L97 21.36L97 21.36Q95.62 21.96 93.73 23.79L93.73 23.79L93.73 23.79Q91.84 25.62 89.98 28.14L89.98 28.14L89.98 28.14Q87.22 31.74 85.75 34.08L85.75 34.08L85.75 34.08Q84.28 36.42 83.50 38.82L83.50 38.82L82.84 40.38L82.84 40.38Q82.90 40.62 82.66 41.58L82.66 41.58L82.66 41.58Q82.42 42.54 82.12 43.14L82.12 43.14L82.12 43.14Q81.28 46.62 81.28 49.44L81.28 49.44L81.28 49.44Q81.28 51.66 81.73 53.28L81.73 53.28L81.73 53.28Q82.18 54.90 83.02 55.68L83.02 55.68L83.02 55.68Q83.50 56.10 84.40 56.10L84.40 56.10L84.40 56.10Q85.36 56.10 86.59 55.65L86.59 55.65L86.59 55.65Q87.82 55.20 89.20 54.60L89.20 54.60L89.20 54.60Q90.58 54.00 91.12 53.76L91.12 53.76L91.12 53.76Q92.50 53.22 93.73 52.50L93.73 52.50L93.73 52.50Q94.96 51.78 95.56 51.18L95.56 51.18L95.56 51.18Q97.12 50.04 98.08 50.04L98.08 50.04L98.08 50.04Q98.86 49.80 99.31 50.52L99.31 50.52L99.31 50.52Q99.76 51.24 99.76 52.50L99.76 52.50L99.76 52.50Q99.76 53.34 98.62 54.51L98.62 54.51L98.62 54.51Q97.48 55.68 95.92 56.58L95.92 56.58L95.92 56.58Q95.26 57.24 92.98 58.14L92.98 58.14L92.98 58.14Q91.06 59.52 88.51 60.60L88.51 60.60L88.51 60.60Q85.96 61.68 83.86 61.68L83.86 61.68L83.86 61.68Q83.38 61.68 82.66 61.56L82.66 61.56ZM113.88 60.06L113.88 60.06Q113.46 59.46 112.47 59.25L112.47 59.25L112.47 59.25Q111.48 59.04 109.32 59.16L109.32 59.16L109.32 59.16Q108.06 59.34 106.77 58.74L106.77 58.74L106.77 58.74Q105.48 58.14 105.72 57.36L105.72 57.36L105.72 57.36Q105.78 56.58 107.49 55.77L107.49 55.77L107.49 55.77Q109.20 54.96 111.60 54.90L111.60 54.90L114.12 54.84L114.72 53.64L114.72 53.64Q114.90 53.28 114.96 52.89L114.96 52.89L114.96 52.89Q115.02 52.50 115.14 52.20L115.14 52.20L115.68 50.04L116.58 47.16L116.58 47.16Q118.38 41.70 118.92 39.48L118.92 39.48L118.92 39.48Q119.22 38.76 119.88 36.60L119.88 36.60L119.88 36.60Q120.54 34.44 120.90 33.06L120.90 33.06L120.90 33.06Q123.66 24.60 123.18 24.48L123.18 24.48L123.18 24.48Q122.58 24.42 120 24.69L120 24.69L120 24.69Q117.42 24.96 117.12 25.14L117.12 25.14L117.12 25.14Q116.82 25.56 116.10 25.02L116.10 25.02L116.10 25.02Q115.38 24.48 115.20 23.82L115.20 23.82L115.20 23.82Q115.14 23.64 115.14 23.22L115.14 23.22L115.14 23.22Q115.14 22.38 115.56 22.14L115.56 22.14L115.56 22.14Q116.16 21.60 118.65 20.94L118.65 20.94L118.65 20.94Q121.14 20.28 123.30 19.98L123.30 19.98L123.30 19.98Q124.32 19.86 125.37 19.53L125.37 19.53L125.37 19.53Q126.42 19.20 126.96 18.72L126.96 18.72L126.96 18.72Q128.22 18.30 129.06 18.36L129.06 18.36L129.06 18.36Q129.48 18.66 131.10 18.66L131.10 18.66L131.10 18.66Q132.48 18.66 133.20 18.60L133.20 18.60L133.20 18.60Q134.76 18.48 135.36 18.48L135.36 18.48L135.36 18.48Q138.96 18.48 139.68 20.16L139.68 20.16L139.68 20.16Q139.80 20.76 139.80 21.06L139.80 21.06L139.80 21.06Q139.80 21.84 139.35 22.32L139.35 22.32L139.35 22.32Q138.90 22.80 138.12 22.74L138.12 22.74L138.12 22.74Q137.04 23.04 134.10 23.10L134.10 23.10L134.10 23.10Q130.14 23.46 129.84 23.94L129.84 23.94L129.84 23.94Q129.54 24.24 129.39 24.48L129.39 24.48L129.39 24.48Q129.24 24.72 129.06 24.96L129.06 24.96L129.06 24.96Q129.12 25.50 127.98 28.86L127.98 28.86L126.90 32.04L126.90 32.04Q125.22 37.26 124.74 38.46L124.74 38.46L124.74 38.46Q124.32 39.48 124.14 40.56L124.14 40.56L124.14 40.56Q123.66 42.18 123.27 43.65L123.27 43.65L123.27 43.65Q122.88 45.12 122.46 46.44L122.46 46.44L120.12 54.78L123.72 54.48L123.72 54.48Q127.26 54.12 127.98 54.12L127.98 54.12L127.98 54.12Q128.58 54.12 128.76 54.24L128.76 54.24L128.76 54.24Q128.94 54.36 129 54.63L129 54.63L129 54.63Q129.06 54.90 129.12 55.02L129.12 55.02L129.12 55.02Q129.66 55.74 129.66 56.40L129.66 56.40L129.66 56.40Q129.66 57.48 128.22 58.14L128.22 58.14L128.22 58.14Q126.78 58.80 124.26 58.74L124.26 58.74L124.26 58.74Q121.56 58.86 119.88 58.95L119.88 58.95L119.88 58.95Q118.20 59.04 117.78 59.22L117.78 59.22L117.78 59.22Q117.36 59.40 117.36 59.82L117.36 59.82L117.36 59.82Q117.42 60.36 117 60.69L117 60.69L117 60.69Q116.58 61.02 115.92 61.02L115.92 61.02L115.92 61.02Q114.78 61.02 113.88 60.06L113.88 60.06Z" transform="rotate(0 73.8600025177002 38.579999923706055)"></path>
            <defs id="SvgjsDefs1018"></defs>
        </svg>
    </g>
    <g id="SvgjsG1021" transform="rotate(0 104.9921875 248.078125)">
        <svg xmlns="http://www.w3.org/2000/svg"
            xmlns:xlink="http://www.w3.org/1999/xlink" width="104.171875" viewBox="0.4300000071525574 2.9000000953674316 104.18000030517578 10.229999542236328" overflow="visible" style="overflow: visible;" transform="" version="1.1"
            xmlns:svgjs="http://svgjs.com/svgjs" preserveAspectRatio="none" height="10.21875" x="52.90625" y="242.96875" fill="#000000" stroke="none">
            <path stroke="none" fill="#0aa7eb" d="M1.27 5.59L2.84 11.29L2.96 11.92L3.12 11.25L4.90 5.59L5.60 5.59L7.36 11.20L7.55 11.98L7.70 11.27L9.22 5.59L10.07 5.59L7.92 12.99L7.22 12.99L5.32 7.12L5.23 6.72L5.14 7.13L3.27 12.99L2.58 12.99L0.43 5.59L1.27 5.59ZM12.83 5.59L14.39 11.29L14.51 11.92L14.68 11.25L16.46 5.59L17.15 5.59L18.91 11.20L19.10 11.98L19.26 11.27L20.78 5.59L21.62 5.59L19.47 12.99L18.77 12.99L16.87 7.12L16.78 6.72L16.70 7.13L14.83 12.99L14.13 12.99L11.99 5.59L12.83 5.59ZM24.38 5.59L25.95 11.29L26.07 11.92L26.23 11.25L28.01 5.59L28.71 5.59L30.46 11.20L30.66 11.98L30.81 11.27L32.33 5.59L33.18 5.59L31.03 12.99L30.33 12.99L28.43 7.12L28.34 6.72L28.25 7.13L26.38 12.99L25.69 12.99L23.54 5.59L24.38 5.59ZM34.81 12.50L34.81 12.50L34.81 12.50Q34.81 12.26 34.96 12.09L34.96 12.09L34.96 12.09Q35.12 11.92 35.39 11.92L35.39 11.92L35.39 11.92Q35.66 11.92 35.82 12.09L35.82 12.09L35.82 12.09Q35.98 12.26 35.98 12.50L35.98 12.50L35.98 12.50Q35.98 12.74 35.82 12.89L35.82 12.89L35.82 12.89Q35.66 13.04 35.39 13.04L35.39 13.04L35.39 13.04Q35.12 13.04 34.96 12.89L34.96 12.89L34.96 12.89Q34.81 12.74 34.81 12.50ZM43.66 11.11L43.66 11.11L43.66 11.11Q43.66 10.50 43.17 10.13L43.17 10.13L43.17 10.13Q42.68 9.76 41.69 9.55L41.69 9.55L41.69 9.55Q40.71 9.34 40.17 9.07L40.17 9.07L40.17 9.07Q39.62 8.80 39.36 8.42L39.36 8.42L39.36 8.42Q39.10 8.03 39.10 7.47L39.10 7.47L39.10 7.47Q39.10 6.60 39.83 6.03L39.83 6.03L39.83 6.03Q40.56 5.46 41.70 5.46L41.70 5.46L41.70 5.46Q42.94 5.46 43.69 6.07L43.69 6.07L43.69 6.07Q44.43 6.68 44.43 7.66L44.43 7.66L43.61 7.66L43.61 7.66Q43.61 7.01 43.07 6.58L43.07 6.58L43.07 6.58Q42.53 6.15 41.70 6.15L41.70 6.15L41.70 6.15Q40.89 6.15 40.40 6.51L40.40 6.51L40.40 6.51Q39.92 6.87 39.92 7.44L39.92 7.44L39.92 7.44Q39.92 8.00 40.32 8.30L40.32 8.30L40.32 8.30Q40.73 8.61 41.81 8.86L41.81 8.86L41.81 8.86Q42.88 9.11 43.42 9.40L43.42 9.40L43.42 9.40Q43.96 9.69 44.22 10.09L44.22 10.09L44.22 10.09Q44.48 10.49 44.48 11.07L44.48 11.07L44.48 11.07Q44.48 12.00 43.72 12.56L43.72 12.56L43.72 12.56Q42.96 13.13 41.75 13.13L41.75 13.13L41.75 13.13Q40.46 13.13 39.65 12.50L39.65 12.50L39.65 12.50Q38.85 11.87 38.85 10.92L38.85 10.92L39.67 10.92L39.67 10.92Q39.72 11.63 40.27 12.03L40.27 12.03L40.27 12.03Q40.83 12.43 41.75 12.43L41.75 12.43L41.75 12.43Q42.60 12.43 43.13 12.06L43.13 12.06L43.13 12.06Q43.66 11.68 43.66 11.11ZM50.05 12.43L50.05 12.43L50.05 12.43Q50.90 12.43 51.48 11.95L51.48 11.95L51.48 11.95Q52.06 11.47 52.11 10.71L52.11 10.71L52.89 10.71L52.89 10.71Q52.86 11.38 52.47 11.94L52.47 11.94L52.47 11.94Q52.08 12.50 51.43 12.81L51.43 12.81L51.43 12.81Q50.79 13.13 50.05 13.13L50.05 13.13L50.05 13.13Q48.59 13.13 47.74 12.11L47.74 12.11L47.74 12.11Q46.89 11.10 46.89 9.39L46.89 9.39L46.89 9.15L46.89 9.15Q46.89 8.05 47.27 7.21L47.27 7.21L47.27 7.21Q47.66 6.37 48.37 5.91L48.37 5.91L48.37 5.91Q49.08 5.46 50.04 5.46L50.04 5.46L50.04 5.46Q51.26 5.46 52.05 6.18L52.05 6.18L52.05 6.18Q52.84 6.90 52.89 8.09L52.89 8.09L52.11 8.09L52.11 8.09Q52.05 7.22 51.48 6.69L51.48 6.69L51.48 6.69Q50.91 6.15 50.04 6.15L50.04 6.15L50.04 6.15Q48.93 6.15 48.32 6.95L48.32 6.95L48.32 6.95Q47.71 7.75 47.71 9.19L47.71 9.19L47.71 9.43L47.71 9.43Q47.71 10.85 48.32 11.64L48.32 11.64L48.32 11.64Q48.93 12.43 50.05 12.43ZM58.26 12.43L58.26 12.43L58.26 12.43Q59.12 12.43 59.69 11.95L59.69 11.95L59.69 11.95Q60.27 11.47 60.32 10.71L60.32 10.71L61.10 10.71L61.10 10.71Q61.07 11.38 60.68 11.94L60.68 11.94L60.68 11.94Q60.29 12.50 59.65 12.81L59.65 12.81L59.65 12.81Q59.00 13.13 58.26 13.13L58.26 13.13L58.26 13.13Q56.80 13.13 55.95 12.11L55.95 12.11L55.95 12.11Q55.10 11.10 55.10 9.39L55.10 9.39L55.10 9.15L55.10 9.15Q55.10 8.05 55.49 7.21L55.49 7.21L55.49 7.21Q55.87 6.37 56.58 5.91L56.58 5.91L56.58 5.91Q57.30 5.46 58.25 5.46L58.25 5.46L58.25 5.46Q59.47 5.46 60.26 6.18L60.26 6.18L60.26 6.18Q61.05 6.90 61.10 8.09L61.10 8.09L60.32 8.09L60.32 8.09Q60.26 7.22 59.69 6.69L59.69 6.69L59.69 6.69Q59.12 6.15 58.25 6.15L58.25 6.15L58.25 6.15Q57.15 6.15 56.53 6.95L56.53 6.95L56.53 6.95Q55.92 7.75 55.92 9.19L55.92 9.19L55.92 9.43L55.92 9.43Q55.92 10.85 56.53 11.64L56.53 11.64L56.53 11.64Q57.15 12.43 58.26 12.43ZM66.28 8.25L66.28 8.94L63.01 8.94L63.01 8.25L66.28 8.25ZM69.66 5.59L69.66 12.99L68.84 12.99L68.84 5.59L69.66 5.59ZM68.70 3.45L68.70 3.45L68.70 3.45Q68.70 3.22 68.85 3.06L68.85 3.06L68.85 3.06Q69.00 2.90 69.26 2.90L69.26 2.90L69.26 2.90Q69.52 2.90 69.67 3.06L69.67 3.06L69.67 3.06Q69.82 3.22 69.82 3.45L69.82 3.45L69.82 3.45Q69.82 3.68 69.67 3.84L69.67 3.84L69.67 3.84Q69.52 4.00 69.26 4.00L69.26 4.00L69.26 4.00Q69.00 4.00 68.85 3.84L68.85 3.84L68.85 3.84Q68.70 3.68 68.70 3.45ZM72.81 12.50L72.81 12.50L72.81 12.50Q72.81 12.26 72.96 12.09L72.96 12.09L72.96 12.09Q73.11 11.92 73.39 11.92L73.39 11.92L73.39 11.92Q73.66 11.92 73.82 12.09L73.82 12.09L73.82 12.09Q73.98 12.26 73.98 12.50L73.98 12.50L73.98 12.50Q73.98 12.74 73.82 12.89L73.82 12.89L73.82 12.89Q73.66 13.04 73.39 13.04L73.39 13.04L73.39 13.04Q73.11 13.04 72.96 12.89L72.96 12.89L72.96 12.89Q72.81 12.74 72.81 12.50ZM79.96 12.43L79.96 12.43L79.96 12.43Q80.81 12.43 81.39 11.95L81.39 11.95L81.39 11.95Q81.97 11.47 82.02 10.71L82.02 10.71L82.80 10.71L82.80 10.71Q82.77 11.38 82.38 11.94L82.38 11.94L82.38 11.94Q81.99 12.50 81.34 12.81L81.34 12.81L81.34 12.81Q80.70 13.13 79.96 13.13L79.96 13.13L79.96 13.13Q78.50 13.13 77.65 12.11L77.65 12.11L77.65 12.11Q76.80 11.10 76.80 9.39L76.80 9.39L76.80 9.15L76.80 9.15Q76.80 8.05 77.18 7.21L77.18 7.21L77.18 7.21Q77.57 6.37 78.28 5.91L78.28 5.91L78.28 5.91Q79.00 5.46 79.95 5.46L79.95 5.46L79.95 5.46Q81.17 5.46 81.96 6.18L81.96 6.18L81.96 6.18Q82.75 6.90 82.80 8.09L82.80 8.09L82.02 8.09L82.02 8.09Q81.96 7.22 81.39 6.69L81.39 6.69L81.39 6.69Q80.82 6.15 79.95 6.15L79.95 6.15L79.95 6.15Q78.84 6.15 78.23 6.95L78.23 6.95L78.23 6.95Q77.62 7.75 77.62 9.19L77.62 9.19L77.62 9.43L77.62 9.43Q77.62 10.85 78.23 11.64L78.23 11.64L78.23 11.64Q78.84 12.43 79.96 12.43ZM84.99 9.34L84.99 9.18L84.99 9.18Q84.99 8.11 85.40 7.26L85.40 7.26L85.40 7.26Q85.81 6.41 86.57 5.93L86.57 5.93L86.57 5.93Q87.32 5.46 88.28 5.46L88.28 5.46L88.28 5.46Q89.76 5.46 90.67 6.49L90.67 6.49L90.67 6.49Q91.59 7.53 91.59 9.24L91.59 9.24L91.59 9.41L91.59 9.41Q91.59 10.48 91.18 11.34L91.18 11.34L91.18 11.34Q90.76 12.20 90.01 12.66L90.01 12.66L90.01 12.66Q89.26 13.13 88.29 13.13L88.29 13.13L88.29 13.13Q86.82 13.13 85.90 12.09L85.90 12.09L85.90 12.09Q84.99 11.05 84.99 9.34L84.99 9.34ZM85.81 9.26L85.81 9.41L85.81 9.41Q85.81 10.73 86.49 11.58L86.49 11.58L86.49 11.58Q87.18 12.43 88.29 12.43L88.29 12.43L88.29 12.43Q89.40 12.43 90.09 11.58L90.09 11.58L90.09 11.58Q90.78 10.73 90.78 9.34L90.78 9.34L90.78 9.18L90.78 9.18Q90.78 8.33 90.46 7.63L90.46 7.63L90.46 7.63Q90.15 6.92 89.58 6.54L89.58 6.54L89.58 6.54Q89.01 6.15 88.28 6.15L88.28 6.15L88.28 6.15Q87.19 6.15 86.50 7.01L86.50 7.01L86.50 7.01Q85.81 7.87 85.81 9.26L85.81 9.26ZM94.24 5.59L95.02 5.59L95.05 6.79L95.05 6.79Q95.46 6.13 96.08 5.79L96.08 5.79L96.08 5.79Q96.69 5.46 97.44 5.46L97.44 5.46L97.44 5.46Q99.19 5.46 99.66 6.89L99.66 6.89L99.66 6.89Q100.06 6.20 100.72 5.83L100.72 5.83L100.72 5.83Q101.39 5.46 102.19 5.46L102.19 5.46L102.19 5.46Q104.57 5.46 104.61 8.05L104.61 8.05L104.61 12.99L103.79 12.99L103.79 8.11L103.79 8.11Q103.79 7.12 103.37 6.64L103.37 6.64L103.37 6.64Q102.95 6.17 102.00 6.17L102.00 6.17L102.00 6.17Q101.11 6.18 100.50 6.74L100.50 6.74L100.50 6.74Q99.90 7.29 99.83 8.09L99.83 8.09L99.83 12.99L99.01 12.99L99.01 8.05L99.01 8.05Q99.00 7.10 98.56 6.63L98.56 6.63L98.56 6.63Q98.12 6.17 97.20 6.17L97.20 6.17L97.20 6.17Q96.43 6.17 95.88 6.61L95.88 6.61L95.88 6.61Q95.32 7.05 95.06 7.92L95.06 7.92L95.06 12.99L94.24 12.99L94.24 5.59Z" transform="rotate(0 52.52000015974045 8.014999866485596)"></path>
            <defs id="SvgjsDefs1020"></defs>
        </svg>
    </g>
</svg>